<svg width="48" height="48" viewBox="0 0 48 48" fill="none" xmlns="http://www.w3.org/2000/svg">
<path d="M15.18 38.16C14.22 38.16 13.3667 37.7467 12.62 36.92C11.8733 36.0667 11.5 34.7467 11.5 32.96C11.5 31.7067 11.66 30.4533 11.98 29.2C12.3267 27.9467 12.6733 26.8 13.02 25.76C13.5533 24.0533 14.02 22.48 14.42 21.04C14.82 19.6 15.02 18.2267 15.02 16.92C15.02 16.0133 14.9133 15.3867 14.7 15.04C14.5133 14.6933 14.26 14.52 13.94 14.52C13.5933 14.52 13.2067 14.7067 12.78 15.08C12.38 15.4533 11.98 16.0267 11.58 16.8L11.3 16.72C11.3533 15.1733 11.6867 13.84 12.3 12.72C12.9133 11.6 13.6867 10.7333 14.62 10.12C15.5533 9.50667 16.5133 9.2 17.5 9.2C18.62 9.2 19.58 9.65333 20.38 10.56C21.18 11.44 21.58 12.9733 21.58 15.16C21.58 16.3067 21.46 17.5067 21.22 18.76C21.0067 20.0133 20.7533 21.2667 20.46 22.52C21.3667 22.1467 22.3267 21.88 23.34 21.72C24.3533 21.56 25.4333 21.48 26.58 21.48H27.62C27.9667 20.1467 28.26 18.84 28.5 17.56C28.7667 16.2533 28.9 15.04 28.9 13.92C28.9 13.52 28.8733 13.1467 28.82 12.8C28.7933 12.4533 28.7533 12.12 28.7 11.8V11.48C29.1 10.76 29.6733 10.1867 30.42 9.76C31.1933 9.33333 31.9667 9.12 32.74 9.12C33.62 9.12 34.3933 9.41333 35.06 10C35.7267 10.56 36.06 11.4667 36.06 12.72C36.06 13.6533 35.8733 14.8533 35.5 16.32C35.1533 17.7867 34.7533 19.2933 34.3 20.84C33.7667 22.7333 33.2733 24.5733 32.82 26.36C32.3933 28.12 32.18 29.6133 32.18 30.84C32.18 31.6667 32.3133 32.32 32.58 32.8C32.8467 33.28 33.2733 33.52 33.86 33.52C34.66 33.52 35.26 33.1333 35.66 32.36L35.9 32.48C35.8733 33.6 35.5667 34.5867 34.98 35.44C34.3933 36.2933 33.66 36.96 32.78 37.44C31.9267 37.92 31.0467 38.16 30.14 38.16C29.34 38.16 28.58 37.96 27.86 37.56C27.1667 37.1333 26.5933 36.48 26.14 35.6C25.7133 34.72 25.5 33.5733 25.5 32.16C25.5 31.2267 25.5933 30.2133 25.78 29.12C25.9933 28 26.2333 26.8667 26.5 25.72C25.2733 25.64 24.0733 25.6 22.9 25.6C22.3133 25.6 21.7533 25.6133 21.22 25.64C20.6867 25.6667 20.18 25.7067 19.7 25.76C19.46 26.8267 19.2467 27.88 19.06 28.92C18.9 29.9333 18.82 30.92 18.82 31.88C18.82 32.4133 18.8467 32.9467 18.9 33.48C18.98 33.9867 19.1 34.48 19.26 34.96C18.8333 36 18.2333 36.8 17.46 37.36C16.7133 37.8933 15.9533 38.16 15.18 38.16Z" fill="#F45823"/>
</svg>
